<svg width="200" height="200" viewBox="0 0 200 200" fill="none" xmlns="http://www.w3.org/2000/svg">
<g style="mix-blend-mode:luminosity" opacity="0.5">
<mask id="mask0_22424_9144" style="mask-type:luminance" maskUnits="userSpaceOnUse" x="23" y="15" width="154" height="170">
<path d="M23 15H176.716V185H23V15Z" fill="white"/>
</mask>
<g mask="url(#mask0_22424_9144)">
<path d="M174.172 130.947C169.268 118.107 163.435 105.546 157.834 93.0149C155.432 87.6385 153.242 82.1884 150.782 76.836C149.969 75.0629 149.094 73.3175 148.29 71.5426C148.173 71.2862 148.059 71.0242 147.939 70.764C148.208 70.6312 148.472 70.5002 148.472 70.5002L148.022 69.5076L148.002 69.5186L142.159 56.4153H142.161L142.079 56.2363L141.718 55.4264L141.708 55.4301V55.4282C141.708 55.4282 141.105 55.6902 140.906 55.7769C139.319 56.4614 137.692 57.0094 136.138 57.598C131.363 59.4079 126.528 61.1385 122 63.5315C118.472 65.3987 114.72 66.7954 111.127 68.5205C99.5904 74.0648 87.9446 79.2677 76.1937 84.3544C72.0018 86.1681 67.7915 87.8784 63.6052 89.6902C60.6771 90.9577 57.8653 92.6644 54.8764 93.7659C52.4668 94.6533 50.1402 95.9411 47.8155 97.0389C47.0148 97.4171 46.0886 97.7603 45.3911 98.3175L45.3303 98.3655L44.1863 95.705C49.5756 91.0869 54.655 86.0721 60.0535 81.4522C65.7362 76.5943 71.5185 71.8913 77.2841 67.1404C80.1679 64.7659 82.8432 62.1238 85.655 59.6607L87.2565 58.2991C87.5978 58.0168 87.9391 57.7345 88.286 57.4596C93.2565 53.5352 98.6568 49.8083 103.347 45.5592C108.887 40.5371 114.747 35.6791 120.561 30.9743C121.945 29.8544 123.301 28.7068 124.679 27.5795C125.063 27.2659 125.897 26.4633 125.897 26.4633L125.216 25.7363L125.208 25.7437L123.863 24.3083L115.959 15.8692L115.963 15.8655L115.238 15.0943C115.238 15.0943 114.983 15.3729 114.891 15.4504C113.956 16.2197 112.895 16.836 111.917 17.5518C107.697 20.6349 103.637 24.3932 99.7528 27.8876C94.9391 32.2197 89.7269 36.2548 84.69 40.3452C75.0258 48.1939 65.4299 56.1053 56.024 64.2603C48.7528 70.5648 40.8247 76.0149 33.6236 82.3784C31.3007 84.4301 29.0609 86.5555 26.7011 88.5611C25.9483 89.1976 25.2454 89.9227 24.417 90.4614C24.1439 90.6404 23.869 90.8692 23.583 91.0278C23.5166 91.0555 23 91.3969 23 91.3969L23.6255 92.2695H23.6273L24.2897 93.2068C24.1919 93.2861 24.131 93.3876 24.1089 93.5112C24.0849 93.6367 24.1052 93.7529 24.1697 93.8618C24.8542 95.0389 25.8413 96.1053 26.6513 97.1994C28.6162 99.86 30.5849 102.513 32.559 105.155C32.6273 105.247 32.7159 105.308 32.8247 105.34L33.155 106.218C33.1384 106.225 33.1218 106.233 33.1052 106.242C33.0461 106.273 32.9945 106.316 32.9502 106.367C32.9077 106.421 32.8764 106.48 32.8561 106.544C32.8358 106.611 32.8284 106.677 32.8358 106.744C32.8413 106.812 32.8616 106.877 32.893 106.936C34.0018 109.015 34.7269 111.343 35.5369 113.55C35.703 114 35.8598 114.808 36.0849 115.508C36.2196 116.004 36.452 116.449 36.7823 116.843C36.8339 116.895 36.8948 116.934 36.9649 116.961C37.0055 117.017 37.0554 117.063 37.1162 117.1C37.3284 117.207 37.5461 117.223 37.7712 117.148C37.9465 117.094 38.1144 117.026 38.2768 116.945L40.0332 121.061C40.0166 121.085 40.0018 121.109 39.9908 121.135C39.9428 121.255 39.9262 121.378 39.941 121.508C39.9926 121.832 40.0849 122.142 40.2196 122.441C40.4631 122.926 40.6513 123.441 40.8598 123.941C41.4649 125.402 42.1199 126.832 42.7583 128.279C44.6845 132.642 46.524 137.043 48.5129 141.378C52.5148 150.105 55.5683 159.26 59.5387 167.993C61.3358 171.943 62.4373 176.832 65.2731 180.234C65.3801 180.362 65.5185 180.423 65.6845 180.417C65.9631 180.989 66.2934 181.53 66.6753 182.039C66.7528 182.139 67.0221 182.513 67.3026 182.86C67.2601 182.941 67.2435 183.026 67.2509 183.118C67.2583 183.251 67.3081 183.364 67.4041 183.456C67.5424 183.629 67.7011 183.779 67.8819 183.906C68.2601 184.091 68.6384 184.277 69.0148 184.461C70.0037 184.943 71.2196 184.786 72.3044 184.777C75.4945 184.747 78.4797 182.937 81.428 181.925C81.5037 181.901 81.5683 181.86 81.6255 181.805C81.6808 181.749 81.7232 181.685 81.7491 181.609C81.7749 181.535 81.7823 181.458 81.7731 181.38C81.762 181.301 81.7362 181.229 81.6919 181.163C82.1863 180.956 82.679 180.749 83.1716 180.539C83.2399 180.655 83.3395 180.733 83.4705 180.77C83.6015 180.806 83.7269 180.795 83.8469 180.733C87.6771 178.751 91.9613 177.699 96.0517 176.342C102.024 174.362 107.755 171.663 113.707 169.613C118.699 167.891 123.419 165.316 128.312 163.358C133.441 161.305 138.756 159.845 143.887 157.792C150.234 155.253 156.445 152.485 162.904 150.225C162.969 150.203 163.026 150.17 163.077 150.124C163.127 150.078 163.168 150.024 163.197 149.963C163.227 149.902 163.244 149.838 163.247 149.77C163.251 149.701 163.242 149.635 163.22 149.57C163.192 149.491 163.146 149.423 163.083 149.365L164.493 148.775C166.756 147.827 168.958 146.729 171.194 145.727C171.875 145.421 172.552 145.166 173.24 144.884C173.596 144.74 174.301 143.949 174.249 144.329C178.513 141.897 175.476 134.365 174.172 130.947Z" fill="#456188"/>
</g>
<path fill-rule="evenodd" clip-rule="evenodd" d="M37.8604 115.51C37.9214 115.559 38.7247 115.036 39.0226 114.897C40.2756 114.313 41.5526 113.752 42.7649 113.089C47.8212 110.321 53.3642 108.815 58.5223 106.338C68.9791 101.311 79.7839 96.783 90.4961 92.3252C93.685 90.9987 97.0719 90.2043 100.257 88.8612C108.239 85.4989 115.957 81.4881 123.943 78.1443C129.891 75.6558 135.923 73.3317 141.812 70.7157C143.198 70.1005 144.64 69.6368 146.021 69.0013C146.191 68.9237 147.252 68.6189 147.272 68.4212C147.3 68.1293 147.568 68.9237 147.724 69.1731C148.055 69.7421 148.345 70.3315 148.597 70.9411C149.404 72.7202 150.281 74.466 151.098 76.2414C153.565 81.6008 155.761 87.06 158.171 92.4434C163.79 104.991 169.64 117.569 174.56 130.425C175.868 133.85 178.916 141.389 174.636 143.826C174.687 143.446 173.98 144.238 173.625 144.382C172.933 144.665 172.254 144.92 171.571 145.227C169.328 146.23 167.12 147.331 164.849 148.278C158.001 151.144 151.197 153.965 144.276 156.597C137.48 159.182 130.632 161.665 123.817 164.24C118.879 166.108 114.156 168.515 109.18 170.283C103.244 172.391 97.268 174.416 91.3845 176.675C86.7279 178.462 82.2991 180.673 77.6 182.343C74.35 183.498 71.4147 184.448 68.0852 183.095C68.0852 183.068 68.0741 183.082 68.0593 183.062C67.865 183.149 66.8877 181.791 66.7304 181.584C65.3997 179.859 64.9315 177.688 63.6952 175.951" fill="#456188"/>
<mask id="mask1_22424_9144" style="mask-type:luminance" maskUnits="userSpaceOnUse" x="23" y="19" width="136" height="138">
<path d="M23 19.6863H158.295V156.188H23V19.6863Z" fill="white"/>
</mask>
<g mask="url(#mask1_22424_9144)">
<path fill-rule="evenodd" clip-rule="evenodd" d="M103.672 124.48C103.724 124.679 103.798 124.869 103.89 125.052C104.211 125.692 104.805 126.511 104.98 126.88C105.84 128.685 106.816 130.454 107.628 132.279C107.764 132.585 107.871 133.105 108.021 133.554C108.104 133.814 108.218 134.061 108.364 134.293C101.755 137.384 95.1537 140.491 88.4656 143.397C82.7312 145.889 76.9785 148.264 71.2718 150.83C69.4213 151.664 67.5633 152.469 65.7276 153.332C65.0892 153.633 64.4932 154.031 63.8733 154.375C63.6925 154.476 63.2663 154.592 63.0633 154.69C62.9453 154.745 62.8456 154.823 62.7663 154.924C62.639 155.087 62.6187 155.262 62.6999 155.45C62.7737 155.629 62.9028 155.742 63.0892 155.788C63.2036 155.823 63.3161 155.819 63.4268 155.775C63.5394 155.732 63.6242 155.659 63.6851 155.555C63.9194 155.474 64.1464 155.38 64.3715 155.275C64.9692 154.941 65.5449 154.555 66.1648 154.264C67.9951 153.402 69.8475 152.598 71.6925 151.769C77.3954 149.205 83.1427 146.83 88.8752 144.339C100.96 139.089 112.764 133.181 124.847 127.899C127.515 126.731 130.087 125.314 132.801 124.258C135.632 123.159 138.587 122.358 141.405 121.255C145.589 119.618 149.737 117.893 153.918 116.244C154.886 115.862 155.847 115.448 156.835 115.12C157.18 115.03 157.512 114.908 157.835 114.756C158.049 114.64 158.159 114.461 158.169 114.218C158.169 114.109 158.137 114.011 158.074 113.921C158.012 113.832 157.929 113.769 157.825 113.732C157.722 113.697 157.619 113.694 157.514 113.723C157.408 113.753 157.322 113.81 157.253 113.895L156.51 114.144C155.504 114.48 154.526 114.899 153.538 115.286C149.359 116.935 145.213 118.661 141.028 120.297C138.211 121.399 135.255 122.201 132.427 123.301C129.7 124.36 127.115 125.782 124.434 126.956C119.36 129.173 114.335 131.502 109.318 133.847C109.3 133.821 109.279 133.795 109.257 133.773C109.091 133.541 108.98 133.284 108.927 133.006C108.825 132.616 108.705 132.236 108.565 131.86C107.75 130.028 106.77 128.251 105.908 126.439C105.753 126.114 105.285 125.45 104.949 124.854C104.859 124.699 104.777 124.537 104.709 124.371C104.687 124.312 104.67 124.251 104.656 124.188C104.659 124.149 104.659 124.113 104.654 124.074C112.788 120.731 120.962 117.513 128.844 113.576C133.871 111.063 139.202 109.585 144.36 107.413C146.084 106.688 147.916 106.137 149.589 105.301C150.169 105.011 150.805 104.817 151.401 104.563C151.545 104.493 151.68 104.406 151.805 104.306C151.857 104.266 151.925 104.216 151.988 104.17C152.012 104.173 152.036 104.175 152.06 104.175C152.128 104.175 152.192 104.162 152.255 104.135C152.318 104.109 152.375 104.072 152.423 104.024C152.471 103.976 152.508 103.921 152.534 103.858C152.56 103.795 152.573 103.729 152.573 103.661C152.582 103.48 152.519 103.328 152.384 103.207C152.277 103.105 152.148 103.054 151.999 103.055C151.818 103.07 151.656 103.131 151.51 103.24C151.347 103.378 151.176 103.504 150.995 103.618C150.381 103.88 149.726 104.081 149.128 104.38C147.475 105.207 145.665 105.749 143.96 106.467C138.781 108.646 133.43 110.133 128.383 112.657C118.497 117.596 108.15 121.399 98.0043 125.744C90.1704 129.1 82.4526 132.762 74.5799 136.022C70.9729 137.518 67.2645 138.978 63.7331 140.646C62.3198 141.312 60.8696 142.004 59.5117 142.779C59.3973 142.843 58.4176 143.386 58.3216 143.439C58.2829 143.454 58.246 143.472 58.2128 143.496C58.1574 143.535 58.1113 143.583 58.0744 143.64C58.0375 143.697 58.0117 143.76 58.0006 143.827C57.9877 143.895 57.9895 143.961 58.0043 144.028C58.0172 144.094 58.0449 144.155 58.0836 144.212C58.1648 144.315 58.2681 144.382 58.3973 144.411C58.5264 144.441 58.6482 144.426 58.7663 144.365C58.96 144.271 59.8954 143.742 60.0209 143.672C61.3567 142.908 62.7829 142.231 64.1722 141.574C67.6888 139.915 71.3825 138.461 74.9748 136.972C82.8512 133.708 90.5726 130.044 98.4084 126.688C100.159 125.939 101.914 125.203 103.672 124.48ZM58.925 143.62C58.8383 143.489 58.7165 143.419 58.5597 143.408C58.7128 143.423 58.8364 143.494 58.925 143.62L58.9305 143.625C58.9287 143.624 58.9268 143.622 58.925 143.62ZM147.148 91.2029C146.98 91.2528 146.261 91.4686 146.207 91.4871C144.954 91.9483 143.772 92.5959 142.515 93.0498C139.975 93.9631 137.462 95.2675 135.028 96.441C132.595 97.6162 129.98 98.4059 127.525 99.5332C114.204 105.648 100.526 110.808 86.9729 116.349C81.7829 118.47 76.7165 120.867 71.4692 122.856C66.8253 124.614 62.3456 126.614 57.7755 128.517C56.698 128.965 55.6796 129.494 54.58 129.886C54.2017 130.018 53.8364 130.177 53.4822 130.363C53.353 130.458 53.2792 130.581 53.2571 130.74C53.2442 130.847 53.2626 130.95 53.3143 131.046C53.3659 131.142 53.4397 131.214 53.5375 131.264C53.6353 131.312 53.7386 131.328 53.8475 131.31C53.9545 131.293 54.0486 131.247 54.1261 131.172C54.3493 131.057 54.8493 130.882 54.9268 130.854C56.043 130.456 57.0763 129.921 58.1722 129.465C62.7312 127.566 67.2017 125.574 71.8327 123.817C77.091 121.825 82.1648 119.426 87.3622 117.301C100.929 111.753 114.621 106.587 127.954 100.467C130.418 99.3358 133.038 98.5443 135.477 97.3653C137.879 96.2085 140.359 94.9188 142.864 94.0166C144.124 93.5627 145.309 92.9133 146.563 92.452C146.938 92.3616 147.305 92.2435 147.663 92.0996C147.776 92.0498 147.866 91.9742 147.934 91.8745C148.004 91.7731 148.043 91.6624 148.05 91.5406C148.05 91.4336 148.019 91.3358 147.958 91.2472C147.897 91.1605 147.818 91.0978 147.716 91.059C147.617 91.0221 147.515 91.0148 147.41 91.0424C147.307 91.0683 147.22 91.1218 147.15 91.2011L147.148 91.2029ZM54.2626 130.943C54.2663 130.93 54.27 130.917 54.2718 130.904C54.2737 130.893 54.2755 130.88 54.2774 130.869C54.2737 130.893 54.27 130.919 54.2626 130.943ZM50.9932 110.917L38.9988 115.965L36.1113 114.044L32.8253 105.338L38.7257 102.755L50.9932 110.917ZM74.7091 100.935L62.7146 105.983L49.2681 97.0369L60.949 91.7786L74.7091 100.935ZM151.543 103.688L151.552 103.76C151.549 103.736 151.545 103.712 151.543 103.688ZM151.543 103.686V103.661C151.543 103.67 151.543 103.677 151.543 103.686ZM30.5172 85.5148L48.7257 91.0683L43.9416 95.1384L44.0135 95.3044L39.246 99.5166L25.8678 95.4354L23.1611 91.607L30.5172 85.5148ZM98.425 90.9539L86.4305 96.0018L72.3641 86.6402L84.043 81.3838L98.425 90.9539ZM147.021 91.5148C147.021 91.5184 147.021 91.524 147.021 91.5277V91.5406V91.5148ZM122.141 80.9723L110.146 86.0203L95.46 76.2454L107.139 70.9889L122.141 80.9723ZM68.1279 74.5664L58.3161 82.9114L40.2958 77.4151L50.3032 69.1291L68.1279 74.5664ZM145.857 70.9908L133.862 76.0387L118.554 65.8506L130.233 60.5941L145.857 70.9908ZM87.532 58.0646L77.7183 66.4096L60.0818 61.0295L70.0873 52.7435L87.532 58.0646ZM106.934 41.5627L97.1205 49.9077L79.8678 44.6439L89.8733 36.3579L106.934 41.5627ZM116.525 33.4059L99.6519 28.2583L109.657 19.9723L123.862 24.3063L125.353 25.8967L116.525 33.4059Z" fill="#BDCBDD"/>
</g>
<path fill-rule="evenodd" clip-rule="evenodd" d="M81.0659 139.287C81.0473 139.271 81.0306 139.254 81.0157 139.238C80.9748 139.188 80.9395 139.139 80.906 139.086C80.7963 138.897 80.6643 138.727 80.5081 138.573C80.3463 138.429 80.1548 138.368 79.9373 138.392C79.7253 138.421 79.5487 138.513 79.4036 138.668C78.7231 139.34 78.1318 140.781 77.3899 141.883C77.0013 142.46 76.5866 142.956 76.0214 143.031C75.9991 143.033 75.9861 143.011 75.9675 142.994C75.9321 142.959 75.9024 142.923 75.8745 142.883C75.7778 142.727 75.7034 142.564 75.6495 142.39C75.5008 141.907 75.4152 141.413 75.3966 140.909C75.3948 140.838 75.3966 140.752 75.4004 140.704C75.4431 140.611 75.4543 140.512 75.4357 140.411C75.4189 140.311 75.3725 140.223 75.2999 140.148C75.2293 140.074 75.1419 140.025 75.0396 140.003C74.9374 139.981 74.8388 139.988 74.7403 140.025C74.5599 140.093 74.4465 140.219 74.4019 140.404C74.3517 140.686 74.3442 140.97 74.3795 141.255C74.4428 141.995 74.6808 143.042 75.101 143.569C75.2181 143.739 75.3725 143.867 75.5621 143.952C75.7518 144.038 75.9507 144.067 76.1571 144.043C76.9901 143.933 77.6781 143.3 78.2545 142.447C78.8979 141.491 79.4018 140.252 79.98 139.564C80.0526 139.672 80.1399 139.798 80.2087 139.88C80.3166 140.027 80.4523 140.137 80.6178 140.213C80.7833 140.29 80.9581 140.32 81.1403 140.307C81.6795 140.241 82.1592 140.04 82.5776 139.699C82.9309 139.432 83.2526 139.104 83.5761 138.822C83.6263 138.776 83.6654 138.723 83.6951 138.663C83.723 138.603 83.7397 138.538 83.7435 138.473C83.7472 138.405 83.736 138.341 83.7137 138.277C83.6914 138.214 83.6579 138.158 83.6133 138.108C83.5668 138.057 83.5147 138.019 83.4534 137.989C83.392 137.96 83.3288 137.942 83.26 137.938C83.1931 137.933 83.1261 137.942 83.0611 137.962C82.9978 137.984 82.9402 138.017 82.8881 138.059C82.5813 138.326 82.2801 138.637 81.9454 138.89C81.6907 139.104 81.3969 139.236 81.0659 139.287ZM75.3539 140.788C75.3241 140.83 75.2888 140.867 75.2497 140.898C75.207 140.931 75.1605 140.957 75.1103 140.975C75.2163 140.942 75.2962 140.88 75.3539 140.788ZM87.5069 137.061C87.5608 137.021 87.6779 136.933 87.7802 136.869C88.1948 136.622 88.6262 136.408 89.0743 136.226C89.1413 136.206 89.2008 136.175 89.2547 136.131C89.3068 136.085 89.3495 136.034 89.3811 135.972C89.4127 135.912 89.4313 135.847 89.4369 135.78C89.4406 135.71 89.4332 135.644 89.4109 135.58C89.3886 135.514 89.3551 135.456 89.3086 135.404C89.264 135.353 89.2101 135.313 89.1469 135.284C89.0855 135.253 89.0186 135.236 88.9498 135.232C88.8791 135.229 88.8122 135.238 88.7471 135.26C88.4961 135.342 87.2763 135.906 86.8263 136.289C86.7166 136.371 86.6311 136.472 86.5753 136.596C86.5177 136.721 86.4954 136.849 86.5065 136.984C86.527 137.1 86.5809 137.195 86.6683 137.274C86.7557 137.352 86.8579 137.394 86.9751 137.403C87.0941 137.413 87.2019 137.385 87.3005 137.323C87.399 137.259 87.4678 137.171 87.5069 137.061ZM80.2961 114.29L79.9856 114.094C79.7699 113.964 79.5375 113.924 79.2883 113.97C78.9834 114.049 78.7454 114.217 78.5743 114.479L78.4033 114.711C78.3772 114.691 78.3512 114.669 78.3326 114.651C78.2545 114.576 78.1708 114.506 78.0835 114.442C77.9273 114.31 77.7469 114.235 77.5405 114.221C77.336 114.204 77.1445 114.248 76.9678 114.354C76.6499 114.521 76.2668 115.032 75.8968 115.513C75.841 115.586 75.7852 115.659 75.7276 115.727C75.7332 115.645 75.7388 115.564 75.7443 115.498C75.7797 115.238 75.7667 114.982 75.7016 114.728C75.6662 114.62 75.6049 114.53 75.5175 114.457C75.4301 114.384 75.3297 114.338 75.2163 114.321C74.9522 114.299 74.7403 114.395 74.5804 114.603C74.294 114.999 74.0356 115.411 73.8013 115.837C73.4554 116.34 72.7656 117.417 71.9809 118.092C71.7783 118.277 71.5495 118.424 71.2948 118.528C71.1368 118.599 70.9731 118.607 70.8077 118.555C70.6533 118.501 70.6347 118.341 70.6161 118.177C70.5957 117.81 70.618 117.448 70.6812 117.087C70.75 116.727 70.7593 116.366 70.7147 116.004C70.6682 115.769 70.538 115.597 70.3223 115.489C70.1996 115.438 70.0732 115.429 69.943 115.465C69.8147 115.5 69.7106 115.572 69.6307 115.678C69.3555 116.015 68.1803 117.82 68.0706 117.966C67.6095 118.588 66.3656 120.146 65.2053 120.679C64.9654 120.822 64.707 120.86 64.4336 120.794C64.1901 120.708 64.0097 120.463 63.8554 120.055C63.5839 119.344 63.7884 118.526 63.7884 117.794C63.7959 117.724 63.7903 117.657 63.7698 117.589C63.7513 117.521 63.7196 117.461 63.675 117.406C63.6323 117.349 63.5802 117.305 63.517 117.269C63.4556 117.234 63.3905 117.212 63.3199 117.201C63.212 117.184 63.1098 117.201 63.0131 117.25C62.9164 117.3 62.8439 117.371 62.7937 117.466C62.736 117.593 62.6914 117.723 62.6598 117.858C62.5817 118.151 62.4794 118.61 62.4032 118.821C62.1261 119.557 61.8026 120.269 61.4307 120.963C60.5066 122.705 59.4282 124.802 57.8923 126.07C57.8421 126.114 57.7993 126.165 57.7696 126.226C57.738 126.284 57.7212 126.348 57.7157 126.414C57.7101 126.482 57.7175 126.546 57.738 126.61C57.7584 126.674 57.7919 126.733 57.8347 126.784C57.8793 126.835 57.9313 126.876 57.9909 126.907C58.0504 126.938 58.1154 126.956 58.1824 126.964C58.2512 126.969 58.3162 126.964 58.3813 126.943C58.4464 126.925 58.5059 126.894 58.5598 126.852C60.1924 125.503 61.3675 123.288 62.3493 121.435C62.5315 121.091 62.7081 120.739 62.8718 120.381L62.8848 120.414C63.1823 121.193 63.6174 121.589 64.0822 121.755C64.6252 121.918 65.1458 121.869 65.6441 121.603C66.9568 121.001 68.3886 119.269 68.9092 118.566C68.9576 118.502 69.2606 118.056 69.5842 117.578C69.5377 117.979 69.5749 118.371 69.6939 118.757C69.8222 119.13 70.0769 119.383 70.4544 119.513C71.1684 119.769 71.9549 119.467 72.6633 118.859C73.5205 118.123 74.2847 116.956 74.6622 116.406L74.677 116.381C74.6901 116.511 74.7254 116.633 74.7868 116.751C74.8965 116.952 75.0675 117.064 75.2999 117.082C75.7053 117.086 76.0363 116.935 76.2966 116.63C76.5922 116.297 76.8711 115.951 77.1314 115.59C77.2188 115.46 77.3267 115.346 77.455 115.253C77.4773 115.27 77.5163 115.297 77.5387 115.315C77.6223 115.39 77.7041 115.469 77.7897 115.537C78.0072 115.725 78.2601 115.808 78.5483 115.782C78.8012 115.746 79.0057 115.627 79.16 115.425C79.24 115.328 79.3181 115.209 79.3999 115.096C79.4278 115.059 79.4575 115.024 79.4892 114.991C79.5133 115.004 79.5412 115.021 79.5598 115.033C79.6286 115.081 79.7011 115.13 79.7718 115.171C79.9131 115.266 80.0693 115.317 80.2404 115.326C80.4114 115.335 80.5732 115.301 80.7238 115.22C81.2165 114.947 81.6219 114.579 81.9417 114.12C82.1704 113.774 82.4493 113.476 82.7784 113.219C82.8361 113.183 82.8844 113.135 82.9216 113.08C82.9606 113.023 82.9867 112.961 82.9997 112.895C83.0127 112.829 83.0127 112.763 82.9997 112.696C82.9867 112.63 82.9606 112.569 82.9216 112.513C82.8844 112.456 82.8361 112.41 82.7784 112.372C82.7226 112.335 82.6594 112.309 82.5925 112.297C82.5255 112.282 82.4568 112.282 82.3898 112.295C82.3229 112.309 82.2597 112.335 82.2039 112.372C81.7799 112.688 81.4173 113.064 81.118 113.498C80.9023 113.82 80.629 114.085 80.2961 114.29ZM96.0154 119.661C95.9894 119.601 95.969 119.539 95.9504 119.474C95.8927 119.246 95.8518 119.004 95.7942 118.834C95.7272 118.598 95.5822 118.427 95.3572 118.323C95.1453 118.237 94.9444 118.255 94.7511 118.378C94.381 118.625 94.0668 118.929 93.8102 119.288C93.4011 119.809 92.9698 120.468 92.5216 120.998C92.332 121.237 92.1144 121.444 91.8653 121.62C91.75 121.711 91.618 121.754 91.4692 121.746C91.4599 121.726 91.4506 121.708 91.4451 121.686C91.4265 121.622 91.4153 121.558 91.4097 121.492C91.3874 121.278 91.3967 121.051 91.3874 120.868C91.3874 120.661 91.3372 120.465 91.2368 120.284C91.1438 120.139 91.0137 120.049 90.8426 120.014C90.6251 119.974 90.4261 120.02 90.2476 120.154C89.9315 120.368 89.4964 120.988 89.3941 121.109C89.0539 121.508 87.8527 123.257 86.7891 123.978C86.6664 124.066 86.5325 124.135 86.3894 124.186C86.328 124.212 86.2666 124.219 86.2016 124.21C86.1402 124.194 86.0993 124.137 86.0528 124.064C85.9803 123.928 85.9264 123.787 85.8948 123.639C85.8297 123.381 85.9636 123.099 86.0361 122.835C86.1346 122.548 86.1569 122.253 86.1049 121.955C86.0881 121.889 86.0584 121.83 86.0175 121.777C85.9766 121.724 85.9264 121.68 85.8687 121.647C85.8111 121.613 85.7479 121.591 85.6809 121.582C85.614 121.571 85.5471 121.574 85.482 121.591C85.415 121.605 85.3555 121.633 85.2998 121.673C85.2458 121.711 85.1994 121.759 85.164 121.816C85.1287 121.873 85.1045 121.935 85.0934 122.001C85.0822 122.067 85.0841 122.131 85.0989 122.197C85.1045 122.385 85.0673 122.565 84.9874 122.737C84.8535 123.108 84.82 123.491 84.8851 123.881C85.0952 124.723 85.5099 125.085 85.9357 125.195C86.3503 125.303 86.8579 125.17 87.3748 124.82C88.5165 124.047 89.8237 122.191 90.1881 121.765L90.3741 121.543C90.3852 121.739 90.428 121.929 90.4968 122.112C90.5563 122.275 90.653 122.414 90.7868 122.528C90.9207 122.64 91.075 122.713 91.248 122.744C91.592 122.808 91.9173 122.757 92.2241 122.592C92.6518 122.35 93.0144 122.037 93.3156 121.653C93.773 121.115 94.2118 120.443 94.6283 119.914C94.725 119.791 94.8161 119.678 94.9072 119.577C94.924 119.648 94.9426 119.718 94.9575 119.777C95.1118 120.342 95.4502 120.734 95.9783 120.706C96.3594 120.653 96.696 120.5 96.9861 120.249C97.6108 119.771 98.3676 118.909 99.0797 118.35C99.2694 118.189 99.4795 118.061 99.7119 117.966C99.7807 117.935 99.8532 117.924 99.9295 117.937C100 117.964 100.052 118.01 100.089 118.074C100.128 118.127 100.179 118.171 100.236 118.206C100.294 118.241 100.357 118.263 100.424 118.274C100.491 118.283 100.558 118.281 100.625 118.266C100.69 118.25 100.751 118.222 100.807 118.184C100.861 118.145 100.908 118.098 100.943 118.041C100.98 117.984 101.004 117.924 101.015 117.858C101.027 117.792 101.027 117.726 101.012 117.66C100.997 117.596 100.971 117.536 100.932 117.481C100.303 116.615 99.3921 116.802 98.4327 117.554C97.8172 118.037 97.1683 118.742 96.5993 119.24C96.4543 119.37 96.2999 119.487 96.1344 119.593C96.0973 119.619 96.0564 119.641 96.0154 119.661ZM120.37 122.804V122.795C120.37 122.727 120.357 122.662 120.331 122.599C120.303 122.537 120.266 122.482 120.217 122.435C120.169 122.385 120.113 122.349 120.05 122.323C119.987 122.297 119.92 122.284 119.851 122.284C119.708 122.283 119.585 122.332 119.485 122.433C119.351 122.572 119.302 122.735 119.338 122.922C119.414 123.357 119.58 123.756 119.834 124.121C119.959 124.309 120.122 124.454 120.325 124.556C120.528 124.657 120.744 124.705 120.97 124.694C121.32 124.655 121.623 124.521 121.883 124.289C122.447 123.831 122.992 122.658 123.588 121.722C123.737 121.475 123.91 121.246 124.109 121.036C124.182 120.959 124.261 120.893 124.351 120.836C124.371 120.869 124.39 120.904 124.405 120.935C124.477 121.087 124.55 121.263 124.632 121.431C124.866 121.918 125.2 122.33 125.667 122.438C125.941 122.497 126.206 122.473 126.465 122.363C127.763 121.862 128.921 120.507 129.868 119.548C130.005 119.409 130.275 119.035 130.556 118.759L130.574 118.742C130.682 118.958 130.801 119.169 130.931 119.374C130.974 119.427 131.026 119.469 131.085 119.502C131.147 119.535 131.21 119.555 131.279 119.562C131.348 119.57 131.415 119.564 131.48 119.546C131.547 119.526 131.606 119.496 131.66 119.454C131.714 119.41 131.757 119.361 131.79 119.301C131.824 119.242 131.844 119.18 131.852 119.112C131.859 119.044 131.853 118.978 131.835 118.914C131.814 118.848 131.785 118.79 131.742 118.737C131.643 118.618 131.422 118.069 131.26 117.854C131.136 117.671 130.961 117.572 130.736 117.561C130.451 117.582 130.206 117.688 129.996 117.878C129.685 118.18 129.395 118.501 129.124 118.837C128.27 119.701 127.257 120.961 126.086 121.413C126.026 121.446 125.961 121.455 125.892 121.441C125.827 121.408 125.777 121.36 125.742 121.298C125.623 121.115 125.522 120.921 125.442 120.719C125.344 120.465 125.208 120.231 125.035 120.018C124.942 119.912 124.829 119.837 124.693 119.793C124.559 119.749 124.421 119.744 124.284 119.777C123.711 119.901 123.172 120.454 122.711 121.181C122.372 121.713 122.056 122.332 121.744 122.837C121.606 123.084 121.433 123.306 121.225 123.502C121.086 123.615 120.978 123.683 120.876 123.676C120.732 123.663 120.662 123.515 120.587 123.388C120.493 123.203 120.42 123.008 120.37 122.804ZM120.305 123.042C120.206 123.216 120.054 123.304 119.851 123.304C119.946 123.31 120.035 123.289 120.119 123.242C120.201 123.194 120.264 123.128 120.305 123.042ZM135.448 115.868C135.55 116.375 135.741 116.743 136.054 116.939C136.359 117.115 136.684 117.161 137.026 117.078C137.095 117.065 137.156 117.042 137.214 117.003C137.272 116.967 137.32 116.921 137.359 116.866C137.398 116.811 137.426 116.749 137.439 116.683C137.454 116.617 137.456 116.551 137.443 116.485C137.432 116.417 137.406 116.357 137.368 116.3C137.331 116.243 137.285 116.196 137.229 116.157C137.173 116.119 137.11 116.091 137.043 116.077C136.976 116.064 136.909 116.062 136.842 116.073C136.738 116.093 136.664 116.11 136.61 116.077C136.573 116.053 136.561 116.005 136.543 115.958C136.507 115.863 136.481 115.767 136.465 115.669C136.452 115.603 136.426 115.54 136.387 115.486C136.349 115.429 136.301 115.381 136.243 115.345C136.188 115.306 136.124 115.282 136.057 115.268C135.991 115.255 135.922 115.255 135.855 115.268C135.788 115.282 135.725 115.306 135.669 115.345C135.611 115.381 135.563 115.429 135.526 115.486C135.487 115.54 135.461 115.603 135.448 115.669C135.435 115.735 135.435 115.8 135.448 115.868ZM107.339 115.083C107.309 115.065 107.246 115.022 107.211 114.995C107.12 114.924 107.032 114.849 106.943 114.792C106.711 114.623 106.454 114.576 106.175 114.647C105.805 114.762 105.493 114.966 105.238 115.255C104.968 115.537 104.745 115.892 104.429 116.07C104.37 116.102 104.319 116.146 104.279 116.199C104.238 116.253 104.21 116.313 104.191 116.377C104.174 116.441 104.169 116.507 104.178 116.573C104.187 116.639 104.208 116.701 104.241 116.76C104.275 116.818 104.319 116.868 104.372 116.908C104.425 116.95 104.485 116.979 104.55 116.998C104.615 117.016 104.682 117.021 104.749 117.014C104.818 117.007 104.881 116.988 104.941 116.956C105.294 116.721 105.599 116.437 105.855 116.104C105.995 115.914 106.17 115.764 106.38 115.654C106.443 115.703 106.592 115.815 106.679 115.881C106.817 115.994 106.975 116.068 107.153 116.099C107.332 116.128 107.505 116.112 107.674 116.049C108.172 115.832 108.6 115.519 108.955 115.11C109.232 114.788 109.543 114.503 109.888 114.254C110.645 113.783 111.326 113.829 112.146 113.649C112.213 113.635 112.274 113.609 112.33 113.569C112.386 113.53 112.432 113.483 112.469 113.426C112.505 113.369 112.531 113.307 112.542 113.241C112.553 113.173 112.551 113.108 112.536 113.042C112.521 112.976 112.495 112.915 112.456 112.86C112.417 112.806 112.367 112.76 112.309 112.723C112.252 112.687 112.188 112.663 112.122 112.652C112.055 112.639 111.988 112.641 111.921 112.655C110.978 112.86 110.204 112.849 109.334 113.39C108.918 113.684 108.542 114.023 108.206 114.404C107.966 114.691 107.678 114.916 107.339 115.085V115.083ZM141.519 115.35C141.628 115.363 141.73 115.341 141.827 115.29C141.924 115.237 141.995 115.162 142.043 115.065C142.089 114.966 142.104 114.865 142.086 114.757C142.067 114.651 142.019 114.559 141.941 114.484C141.853 114.389 141.744 114.33 141.613 114.312C141.483 114.294 141.362 114.318 141.251 114.384C141.137 114.437 141.056 114.521 141.003 114.632C140.951 114.744 140.942 114.859 140.976 114.977C141.009 115.096 141.076 115.191 141.18 115.26C141.282 115.332 141.396 115.361 141.52 115.35H141.519ZM141.228 115.224C141.266 115.259 141.308 115.288 141.355 115.31C141.396 115.33 141.44 115.343 141.487 115.346C141.388 115.33 141.303 115.29 141.228 115.224ZM93.8455 109.499C93.8251 109.434 93.8046 109.36 93.7935 109.302C93.747 109.08 93.7135 108.848 93.6652 108.67C93.6113 108.386 93.4551 108.178 93.1947 108.046C93.0181 107.975 92.8452 107.98 92.6741 108.064C92.3506 108.225 92.0866 108.452 91.8839 108.745C91.6068 109.155 91.3595 109.58 91.142 110.023C90.9969 110.318 90.8129 110.589 90.5897 110.832C90.4521 110.99 90.2792 111.068 90.0672 111.068C89.9371 111.065 89.8702 110.951 89.8088 110.843C89.6972 110.627 89.621 110.398 89.5801 110.158L89.5355 109.882C89.5764 109.761 89.5708 109.642 89.5206 109.527C89.4704 109.41 89.3886 109.322 89.2733 109.267C89.1636 109.212 89.0502 109.197 88.9312 109.219C88.8122 109.243 88.7118 109.3 88.6318 109.39C88.5314 109.509 88.4849 109.646 88.4868 109.8C88.4998 109.988 88.524 110.175 88.563 110.36C88.6374 110.79 88.7973 111.187 89.0427 111.55C89.1543 111.713 89.2993 111.841 89.4741 111.934C89.6489 112.029 89.8367 112.081 90.0356 112.086C90.8147 112.112 91.367 111.63 91.8021 110.942C92.0512 110.547 92.2651 110.082 92.5031 109.679C92.5756 109.553 92.6537 109.43 92.7411 109.313C92.7615 109.43 92.7838 109.547 92.8117 109.659C92.9716 110.329 93.377 110.704 93.9311 110.554C94.7325 110.334 95.255 109.637 95.7403 108.895C96.0545 108.412 96.3408 107.899 96.8131 107.673C96.8354 107.702 96.8578 107.735 96.8745 107.762C96.9619 107.905 97.0493 108.064 97.1478 108.207C97.4546 108.648 97.8581 108.93 98.4382 108.787C99.3624 108.56 99.7621 107.971 100.039 107.295C100.225 106.849 100.32 106.347 100.634 106.003C100.694 106.01 100.818 106.027 100.896 106.038C101.147 106.095 101.398 106.089 101.648 106.018C102.748 105.631 103.743 104.914 104.879 104.636C104.946 104.621 105.009 104.592 105.065 104.553C105.121 104.513 105.167 104.463 105.205 104.405C105.24 104.346 105.264 104.284 105.275 104.216C105.285 104.149 105.283 104.081 105.264 104.015C105.247 103.949 105.219 103.889 105.177 103.834C105.136 103.779 105.086 103.733 105.024 103.698C104.965 103.663 104.9 103.641 104.831 103.632C104.762 103.623 104.695 103.629 104.628 103.647C103.459 103.934 102.43 104.659 101.298 105.058C101.238 105.066 101.179 105.062 101.121 105.042C101.01 105.024 100.898 105.002 100.792 104.991C100.469 104.932 100.186 105.014 99.9462 105.236C99.5929 105.639 99.3438 106.096 99.1969 106.609C99.0109 107.107 98.8547 107.634 98.1872 107.799C98.1482 107.808 98.1259 107.779 98.1035 107.755C98.0589 107.707 98.0199 107.656 97.9845 107.601C97.8581 107.411 97.7484 107.198 97.6331 107.041C97.3579 106.666 97.0214 106.519 96.6291 106.649C95.8518 106.902 95.3461 107.614 94.8682 108.348C94.567 108.804 94.2937 109.285 93.8455 109.499ZM124.206 108.308C124.163 108.293 124.033 108.247 123.958 108.22C123.739 108.128 123.512 108.105 123.276 108.148C122.705 108.278 122.244 108.76 121.846 109.152C121.777 109.219 121.621 109.397 121.517 109.516C121.37 109.576 121.272 109.683 121.223 109.834C121.173 109.953 121.167 110.072 121.21 110.195C121.255 110.318 121.333 110.409 121.448 110.472C121.603 110.569 121.762 110.58 121.93 110.504C122.017 110.464 122.095 110.409 122.162 110.34C122.276 110.226 122.476 109.974 122.579 109.871C122.737 109.717 122.902 109.538 123.085 109.384C123.203 109.274 123.339 109.194 123.495 109.146C123.514 109.15 123.577 109.168 123.611 109.181C123.67 109.203 123.73 109.227 123.789 109.249C124.02 109.344 124.256 109.357 124.498 109.287C125.673 108.901 126.708 107.986 127.958 107.575C128.023 107.554 128.081 107.521 128.133 107.477C128.185 107.433 128.228 107.38 128.257 107.319C128.289 107.259 128.306 107.195 128.311 107.127C128.315 107.059 128.308 106.993 128.285 106.929C128.265 106.865 128.231 106.808 128.185 106.757C128.14 106.706 128.086 106.666 128.025 106.635C127.964 106.605 127.898 106.587 127.83 106.583C127.763 106.578 127.696 106.585 127.629 106.607C126.392 107.013 125.366 107.916 124.206 108.308ZM88.9758 110.23C88.9479 110.226 88.92 110.221 88.894 110.212C88.8661 110.204 88.8382 110.193 88.8122 110.18C88.8642 110.206 88.92 110.223 88.9758 110.23ZM133.352 104.042C133.265 104.041 133.181 104.061 133.103 104.101C133.027 104.141 132.963 104.198 132.915 104.271C132.867 104.343 132.839 104.421 132.83 104.507C132.822 104.593 132.837 104.676 132.872 104.756C132.936 104.914 133.045 105.025 133.205 105.09C133.32 105.139 133.439 105.15 133.562 105.122C133.743 105.073 133.893 104.98 134.018 104.842C134.103 104.756 134.2 104.641 134.295 104.537C134.33 104.489 134.371 104.447 134.418 104.412C135.005 104.105 135.738 104.176 136.379 104.072C136.446 104.061 136.507 104.035 136.565 104C136.623 103.964 136.669 103.918 136.708 103.863C136.747 103.808 136.775 103.749 136.79 103.684C136.805 103.62 136.807 103.554 136.796 103.488C136.785 103.422 136.76 103.36 136.725 103.303C136.69 103.246 136.645 103.198 136.589 103.16C136.535 103.12 136.474 103.092 136.409 103.076C136.344 103.059 136.277 103.058 136.21 103.067C135.461 103.189 134.615 103.155 133.93 103.513C133.776 103.605 133.638 103.72 133.523 103.856L133.352 104.042ZM113.899 99.9931C113.84 100.03 113.789 100.075 113.748 100.132C113.708 100.187 113.68 100.248 113.665 100.313C113.65 100.379 113.646 100.445 113.659 100.511C113.67 100.579 113.693 100.641 113.73 100.698C113.767 100.755 113.812 100.804 113.867 100.842C113.972 100.916 114.089 100.947 114.215 100.938C114.343 100.929 114.453 100.881 114.546 100.795C114.676 100.687 115.052 100.268 115.381 99.9217C115.52 99.7752 115.712 99.5977 115.745 99.5684C116.078 99.4128 116.326 99.5244 116.575 99.5647C117.054 99.6434 117.542 99.6563 118.2 99.0082C118.248 98.9606 118.285 98.9057 118.311 98.8435C118.337 98.7812 118.35 98.7153 118.35 98.6494C118.35 98.5817 118.337 98.5158 118.311 98.4535C118.285 98.3913 118.248 98.3364 118.2 98.2888C118.152 98.2394 118.096 98.2027 118.031 98.1771C117.967 98.1515 117.902 98.1387 117.834 98.1387C117.765 98.1387 117.698 98.1515 117.635 98.1771C117.571 98.2027 117.516 98.2394 117.467 98.2888C117.358 98.4096 117.226 98.5011 117.071 98.5579C116.893 98.5908 116.716 98.5798 116.543 98.5231C116.099 98.4133 115.671 98.4609 115.26 98.6641C115.084 98.7757 114.924 98.9075 114.782 99.0613C114.49 99.356 114.001 99.8814 113.899 99.9931ZM114.211 99.9199C114.252 99.9235 114.291 99.9308 114.33 99.9437C114.37 99.9565 114.409 99.9729 114.442 99.9949C114.373 99.951 114.295 99.9253 114.213 99.9199H114.211Z" fill="white"/>
<mask id="mask2_22424_9144" style="mask-type:luminance" maskUnits="userSpaceOnUse" x="23" y="15" width="141" height="170">
<path d="M23 15H163.491V185H23V15Z" fill="white"/>
</mask>
<g mask="url(#mask2_22424_9144)">
<path fill-rule="evenodd" clip-rule="evenodd" d="M68.3598 182.996C68.3321 182.963 68.1661 182.764 68.1458 182.744C68.0203 182.594 67.8635 182.543 67.6734 182.583C67.5609 182.602 67.4668 182.653 67.3893 182.736C67.2841 182.843 67.238 182.969 67.2509 183.118C67.2583 183.251 67.31 183.364 67.4041 183.458C67.5424 183.629 67.7011 183.779 67.8819 183.908C68.2602 184.092 68.6384 184.277 69.0166 184.461C70.0037 184.943 71.2196 184.788 72.3044 184.777C75.4945 184.747 78.4797 182.937 81.428 181.926C81.4908 181.902 81.548 181.869 81.5978 181.823C81.6495 181.779 81.6882 181.725 81.7177 181.664C81.7472 181.604 81.7638 181.539 81.7675 181.473C81.7712 181.404 81.762 181.34 81.7399 181.275C81.7177 181.212 81.6845 181.153 81.6402 181.104C81.5959 181.052 81.5424 181.013 81.4834 180.982C81.4225 180.952 81.3579 180.936 81.2915 180.93C81.2233 180.925 81.1587 180.934 81.0941 180.954C78.2472 181.932 75.3764 183.722 72.2952 183.749C71.3635 183.758 70.3155 183.952 69.4686 183.537L68.3598 182.996ZM68.2786 183.089C68.2786 183.139 68.2712 183.19 68.2565 183.238C68.2417 183.286 68.2196 183.33 68.1937 183.371C68.2528 183.286 68.2804 183.192 68.2786 183.089ZM83.8469 180.733C87.6771 178.753 91.9613 177.699 96.0535 176.343C102.026 174.362 107.755 171.664 113.707 169.613C118.701 167.893 123.419 165.316 128.312 163.358C133.441 161.305 138.758 159.847 143.889 157.794C150.234 155.253 156.447 152.485 162.906 150.227C162.969 150.203 163.028 150.17 163.077 150.124C163.129 150.08 163.17 150.026 163.199 149.963C163.229 149.902 163.245 149.838 163.249 149.77C163.253 149.701 163.244 149.635 163.22 149.572C163.197 149.508 163.164 149.449 163.118 149.399C163.074 149.347 163.02 149.308 162.958 149.279C162.897 149.249 162.832 149.233 162.764 149.227C162.696 149.223 162.629 149.234 162.565 149.257C156.092 151.52 149.865 154.294 143.506 156.84C138.375 158.893 133.059 160.353 127.93 162.404C123.054 164.356 118.351 166.926 113.373 168.642C107.424 170.692 101.697 173.388 95.7306 175.367C91.5886 176.742 87.2546 177.816 83.3764 179.821C83.3155 179.853 83.262 179.895 83.2196 179.947C83.1753 179.998 83.1421 180.057 83.1218 180.122C83.1015 180.187 83.0923 180.255 83.0996 180.321C83.1052 180.389 83.1236 180.454 83.155 180.515C83.1864 180.576 83.2269 180.627 83.2804 180.672C83.3321 180.716 83.3911 180.747 83.4557 180.77C83.5203 180.79 83.5886 180.797 83.655 180.792C83.7233 180.784 83.7878 180.766 83.8487 180.734L83.8469 180.733ZM41.0092 121.572C41.059 121.467 41.072 121.356 41.048 121.244C41.024 121.129 40.9668 121.035 40.8782 120.96C40.738 120.827 40.572 120.779 40.3819 120.819C40.1937 120.853 40.0646 120.958 39.9926 121.135C39.9447 121.255 39.928 121.38 39.9447 121.508C39.9945 121.832 40.0867 122.144 40.2232 122.443C40.4649 122.926 40.655 123.441 40.8635 123.941C41.4686 125.404 42.1236 126.832 42.762 128.279C44.6882 132.642 46.5258 137.044 48.5148 141.38C52.5166 150.105 55.5701 159.262 59.5424 167.995C61.3395 171.945 62.441 176.834 65.2768 180.234C65.3192 180.288 65.3709 180.329 65.4317 180.362C65.4926 180.393 65.5572 180.412 65.6236 180.417C65.6919 180.425 65.7583 180.417 65.8229 180.397C65.8893 180.377 65.9483 180.345 66 180.301C66.0517 180.257 66.0941 180.205 66.1255 180.146C66.1568 180.085 66.1771 180.02 66.1827 179.952C66.1882 179.886 66.1827 179.819 66.1624 179.753C66.1421 179.688 66.1089 179.629 66.0664 179.578C63.2878 176.246 62.2399 171.439 60.4797 167.568C56.5055 158.836 53.4539 149.679 49.4502 140.952C47.4631 136.62 45.6273 132.223 43.703 127.864C43.0683 126.425 42.4151 125.002 41.8137 123.546C41.5978 123.024 41.3967 122.487 41.1439 121.982C41.0904 121.847 41.0443 121.711 41.0092 121.572ZM26.8026 95.7197L38.6476 99.3341C39.8266 98.2603 40.9613 97.0721 42.0535 96.1607C44.107 94.4522 46.107 92.6755 48.0886 90.8747L31.3856 85.7788C30.059 86.9836 28.7343 88.1828 27.3672 89.3433C26.583 90.0094 25.8432 90.7622 24.9779 91.3231C24.6753 91.5205 24.3708 91.7714 24.0535 91.943C24.0443 91.9467 23.6273 92.2714 23.6273 92.2714L23 91.3969C23 91.3969 23.5166 91.0537 23.583 91.0278C23.869 90.8692 24.1421 90.6385 24.417 90.4614C25.2454 89.9245 25.9502 89.1976 26.6993 88.5611C29.0609 86.5555 31.3007 84.4319 33.6236 82.3784C40.8229 76.0149 48.7528 70.5666 56.024 64.2622C65.4299 56.1072 75.024 48.1939 84.69 40.3452C89.7269 36.2566 94.9391 32.2197 99.7528 27.8895C103.637 24.3932 107.697 20.6367 111.917 17.5518C112.895 16.836 113.956 16.2197 114.889 15.4504C114.983 15.3729 115.238 15.0943 115.238 15.0943L115.963 15.8655L115.959 15.8692L123.862 24.3064L110.216 20.1422C106.893 22.7806 103.673 25.7419 100.568 28.5389L116.101 33.2769C117.373 32.2345 118.642 31.1994 119.913 30.1736C121.295 29.0537 122.649 27.9079 124.028 26.7806C124.411 26.467 125.214 25.7345 125.214 25.7345L125.895 26.4596C125.895 26.4596 125.061 27.2622 124.677 27.5758C123.301 28.7031 121.943 29.8526 120.559 30.9725C114.747 35.6773 108.886 40.5334 103.347 45.5555C98.6568 49.8083 93.2546 53.5334 88.2841 57.4559C84.4576 60.478 81.0498 64.0352 77.2823 67.1385C71.5166 71.8895 65.7343 76.5906 60.0535 81.4504C54.6513 86.0703 49.5738 91.0832 44.1845 95.7031L45.3284 98.3618L45.3893 98.3157C46.0867 97.7585 47.0111 97.4135 47.8137 97.0352C50.1384 95.9393 52.4649 94.6515 54.8745 93.764C57.8635 92.6625 60.6753 90.954 63.6033 89.6884C67.7897 87.8766 72.0019 86.1644 76.1919 84.3507C87.9428 79.264 99.5886 74.0629 111.125 68.5186C114.72 66.7917 118.47 65.395 121.998 63.5297C126.526 61.1367 131.362 59.4079 136.138 57.5961C137.692 57.0076 139.319 56.4596 140.906 55.7751C141.105 55.6902 141.708 55.4264 141.708 55.4264V55.4301L141.718 55.4245L142.079 56.2363L142.161 56.4135H142.159L148 69.5186L148.02 69.5076L148.472 70.5002C148.472 70.5002 147.688 70.8876 147.448 71.002C146.02 71.6791 144.541 72.2677 143.098 72.9153C137.572 75.3895 131.852 77.4042 126.268 79.7419C118.76 82.8839 111.214 85.9061 103.655 88.919C90.6458 94.1053 77.941 100.168 64.952 105.445C60.9557 107.068 57.1125 109.258 53.0812 110.746C50.3137 111.766 47.1845 112.871 44.5738 114.222C42.8819 115.096 41.0424 115.655 39.286 116.415C39.1144 116.489 38.2454 117.019 37.7731 117.148C37.548 117.225 37.3284 117.209 37.1162 117.1C37.0572 117.065 37.0074 117.019 36.9668 116.961C36.8967 116.936 36.8358 116.895 36.7823 116.843C36.452 116.45 36.2196 116.004 36.0867 115.508C35.8598 114.808 35.703 114 35.5387 113.55C34.7288 111.343 34.0037 109.015 32.8948 106.937C32.8635 106.877 32.8432 106.814 32.8376 106.746C32.8303 106.677 32.8376 106.611 32.8561 106.546C32.8764 106.48 32.9078 106.421 32.952 106.369C32.9945 106.316 33.0461 106.273 33.107 106.242C33.1236 106.233 33.1402 106.225 33.1568 106.218L32.8247 105.341C32.7159 105.308 32.6273 105.247 32.559 105.157C30.5793 102.519 28.6107 99.8673 26.6513 97.2013C25.8432 96.1053 24.8561 95.0389 24.1697 93.8636C24.1347 93.8046 24.1125 93.7419 24.1033 93.6736C24.0941 93.6053 24.0978 93.5389 24.1162 93.4725C24.1328 93.4079 24.1624 93.347 24.203 93.2935C24.2454 93.2382 24.2952 93.1939 24.3542 93.1588C24.4133 93.1256 24.476 93.1035 24.5443 93.0943C24.6107 93.085 24.679 93.0887 24.7435 93.1072C24.81 93.1238 24.8708 93.1533 24.9244 93.1939C24.9797 93.2363 25.024 93.2861 25.0572 93.3452C25.5812 94.1791 26.1642 94.9707 26.8026 95.7197ZM33.4336 105.072C33.3782 105.185 33.2934 105.266 33.179 105.318C33.0627 105.369 32.9446 105.377 32.8247 105.34L33.1568 106.218C33.2786 106.17 33.4004 106.168 33.524 106.212C33.6476 106.258 33.7399 106.338 33.8026 106.454C34.9336 108.574 35.6771 110.947 36.5037 113.198C36.6236 113.522 36.7399 114.032 36.8801 114.556L38.5351 115.657C38.6974 115.567 38.8247 115.496 38.8782 115.472C40.6125 114.722 42.4299 114.174 44.1015 113.308C46.1845 112.279 48.3192 111.375 50.5111 110.596L38.7251 102.755L33.4336 105.072ZM61.214 91.9559C59.2399 92.9411 57.2768 93.9762 55.2306 94.729C53.3321 95.4301 51.4852 96.3821 49.6494 97.2898L62.0886 105.568C62.9096 105.192 63.7343 104.83 64.5646 104.493C67.7435 103.201 70.9041 101.864 74.0572 100.502L61.214 91.9559ZM84.6458 81.7861C81.9686 82.9633 79.2878 84.1349 76.6015 85.2954C75.3303 85.8452 74.059 86.3876 72.786 86.9227L85.6033 95.4522C89.5554 93.7179 93.5111 91.9946 97.4889 90.3304L84.6458 81.7861ZM107.638 71.3212C103.803 73.1367 99.9557 74.919 96.0959 76.6699L109.395 85.5205C113.458 83.8913 117.511 82.2474 121.559 80.585L107.638 71.3212ZM51.3672 69.454C47.9188 72.2087 44.4022 74.871 40.9502 77.6146L57.2011 82.5721C57.9244 81.9319 58.6513 81.2991 59.3838 80.6699C61.9225 78.5002 64.476 76.3563 67.0461 74.2363L51.3672 69.454ZM130.637 60.8618C127.865 61.9356 125.111 63.0481 122.48 64.4411C121.334 65.0463 120.164 65.6035 118.985 66.1367L133.454 75.7659C136.55 74.5555 139.644 73.336 142.677 71.9762C143.611 71.5574 144.563 71.1644 145.502 70.7548L130.637 60.8618ZM70.9022 52.9928C67.5904 55.7456 64.2971 58.5205 61.0221 61.3175L76.8653 66.1515C80.1162 63.4467 83.1107 60.4171 86.3524 57.705L70.9022 52.9928ZM90.8948 36.6699C89.0387 38.1644 87.1771 39.6496 85.3395 41.1422C83.7971 42.395 82.2565 43.6496 80.7196 44.9042L96.6587 49.7677C98.7251 48.1662 100.749 46.5242 102.655 44.7972C103.908 43.6625 105.173 42.5352 106.456 41.4171L90.8948 36.6699Z" fill="#334865"/>
</g>
</g>
</svg>
