<svg width="92" height="28" viewBox="0 0 92 28" fill="none" xmlns="http://www.w3.org/2000/svg">
<path d="M23.3333 6.99996H16.8163L19.4914 4.32479L17.8418 2.67513L13.9999 6.51696L10.1581 2.67513L8.50842 4.32479L11.1836 6.99996H4.66659C3.37975 6.99996 2.33325 8.04646 2.33325 9.33329V22.1666C2.33325 23.4535 3.37975 24.5 4.66659 24.5H23.3333C24.6201 24.5 25.6666 23.4535 25.6666 22.1666V9.33329C25.6666 8.04646 24.6201 6.99996 23.3333 6.99996Z" fill="#FDFDFD"/>
<path d="M48.9413 6.60204V20.5H46.1538V11.4604L42.4304 20.5H40.3198L36.5765 11.4604V20.5H33.789V6.60204H36.9548L41.3751 16.9359L45.7954 6.60204H48.9413ZM55.799 20.6792C54.7371 20.6792 53.7813 20.4469 52.9318 19.9823C52.0823 19.5044 51.4119 18.8341 50.9208 17.9713C50.4429 17.1085 50.204 16.1129 50.204 14.9846C50.204 13.8563 50.4495 12.8608 50.9407 11.998C51.4451 11.1351 52.1287 10.4714 52.9915 10.0068C53.8543 9.52898 54.8167 9.29004 55.8786 9.29004C56.9406 9.29004 57.9029 9.52898 58.7658 10.0068C59.6286 10.4714 60.3056 11.1351 60.7967 11.998C61.3011 12.8608 61.5533 13.8563 61.5533 14.9846C61.5533 16.1129 61.2945 17.1085 60.7768 17.9713C60.2724 18.8341 59.5821 19.5044 58.706 19.9823C57.8432 20.4469 56.8742 20.6792 55.799 20.6792ZM55.799 18.25C56.3034 18.25 56.7746 18.1306 57.2127 17.8916C57.664 17.6394 58.0224 17.2678 58.2879 16.7766C58.5534 16.2855 58.6861 15.6881 58.6861 14.9846C58.6861 13.936 58.4074 13.1329 57.8498 12.5754C57.3056 12.0046 56.6353 11.7192 55.8388 11.7192C55.0424 11.7192 54.372 12.0046 53.8278 12.5754C53.2968 13.1329 53.0314 13.936 53.0314 14.9846C53.0314 16.0333 53.2902 16.843 53.8079 17.4138C54.3389 17.9713 55.0026 18.25 55.799 18.25ZM67.4011 17.9315L70.1887 9.46924H73.1554L69.0736 20.5H65.6888L61.6269 9.46924H64.6136L67.4011 17.9315ZM75.3383 8.15511C74.8472 8.15511 74.4357 8.00246 74.1038 7.69715C73.7853 7.37858 73.626 6.98699 73.626 6.5224C73.626 6.0578 73.7853 5.67286 74.1038 5.36755C74.4357 5.04897 74.8472 4.88969 75.3383 4.88969C75.8295 4.88969 76.2343 5.04897 76.5529 5.36755C76.8848 5.67286 77.0507 6.0578 77.0507 6.5224C77.0507 6.98699 76.8848 7.37858 76.5529 7.69715C76.2343 8.00246 75.8295 8.15511 75.3383 8.15511ZM76.7122 9.46924V20.5H73.9246V9.46924H76.7122ZM88.9241 14.7457C88.9241 15.1439 88.8975 15.5023 88.8445 15.8209H80.7805C80.8468 16.6173 81.1256 17.2412 81.6167 17.6925C82.1079 18.1439 82.7118 18.3695 83.4286 18.3695C84.464 18.3695 85.2007 17.9248 85.6388 17.0355H88.6453C88.3268 18.0974 87.7162 18.9735 86.8135 19.6637C85.9109 20.3407 84.8025 20.6792 83.4884 20.6792C82.4264 20.6792 81.4707 20.4469 80.6212 19.9823C79.7849 19.5044 79.1278 18.8341 78.65 17.9713C78.1854 17.1085 77.9531 16.1129 77.9531 14.9846C77.9531 13.8431 78.1854 12.8409 78.65 11.978C79.1146 11.1152 79.765 10.4515 80.6013 9.98693C81.4375 9.52234 82.3999 9.29004 83.4884 9.29004C84.537 9.29004 85.4728 9.5157 86.2958 9.96702C87.1321 10.4183 87.7759 11.0621 88.2272 11.8984C88.6918 12.7214 88.9241 13.6705 88.9241 14.7457ZM86.037 13.9492C86.0237 13.2324 85.7649 12.6617 85.2605 12.2369C84.756 11.7988 84.1388 11.5798 83.4087 11.5798C82.7185 11.5798 82.1344 11.7922 81.6565 12.217C81.1919 12.6285 80.9066 13.2059 80.8004 13.9492H86.037Z" fill="#FDFDFD"/>
</svg>
